<?xml version="1.0" encoding="utf-8"?>
<!-- Generator: Adobe Illustrator 22.1.0, SVG Export Plug-In . SVG Version: 6.00 Build 0)  -->
<svg version="1.1" id="Layer_1" xmlns="http://www.w3.org/2000/svg" xmlns:xlink="http://www.w3.org/1999/xlink" x="0px" y="0px"
	 viewBox="0 0 118 30" style="enable-background:new 0 0 118 30;" xml:space="preserve">
<style type="text/css">
	.st0{fill:#FFFFFF;}
</style>
<g>
	<path class="st0" d="M11.7,19.2v9.2h-6V1.6h9.5c6.8,0,10.1,2.9,10.1,8.6c0,2.7-1,4.9-2.9,6.5s-4.5,2.5-7.8,2.5H11.7z M11.7,6.2v8.4
		h2.4c3.2,0,4.8-1.4,4.8-4.2c0-2.8-1.6-4.1-4.8-4.1H11.7z"/>
	<path class="st0" d="M51.2,26.6c-2.6,1.5-5.9,2.3-9.8,2.3c-4.3,0-7.7-1.2-10.2-3.6c-2.5-2.4-3.7-5.7-3.7-9.9
		c0-4.2,1.4-7.7,4.1-10.3s6.3-4,10.9-4c2.8,0,5.4,0.4,7.5,1.2V8c-2.1-1.2-4.6-1.8-7.6-1.8c-2.5,0-4.6,0.8-6.1,2.4
		c-1.6,1.6-2.4,3.8-2.4,6.5c0,2.8,0.7,4.9,2.1,6.4c1.4,1.5,3.3,2.3,5.7,2.3c1.4,0,2.6-0.2,3.4-0.6v-5.2h-5.4v-4.8h11.4V26.6z"/>
	<path class="st0" d="M66.3,20.2H56v-4.1h10.2V20.2z"/>
	<path class="st0" d="M84.4,1v27.4h-5.9V7.6c-0.3,0.3-0.7,0.6-1.2,0.8c-0.4,0.3-0.9,0.5-1.4,0.7s-1,0.4-1.6,0.5
		c-0.5,0.1-1.1,0.2-1.6,0.3V5c1.5-0.4,3-1,4.3-1.7c1.4-0.7,2.6-1.5,3.7-2.3H84.4z"/>
	<path class="st0" d="M106.5,1v27.4h-5.9V7.6c-0.3,0.3-0.7,0.6-1.2,0.8C99,8.7,98.5,8.9,98,9.1s-1,0.4-1.6,0.5
		c-0.5,0.1-1.1,0.2-1.6,0.3V5c1.5-0.4,3-1,4.3-1.7c1.4-0.7,2.6-1.5,3.7-2.3H106.5z"/>
</g>
</svg>
